<?xml version="1.0" encoding="utf-8"?>
<!-- Generator: Adobe Illustrator 27.0.0, SVG Export Plug-In . SVG Version: 6.00 Build 0)  -->
<svg version="1.1" id="Layer_1" xmlns="http://www.w3.org/2000/svg" xmlns:xlink="http://www.w3.org/1999/xlink" x="0px" y="0px"
	 viewBox="0 0 2000 2000" style="enable-background:new 0 0 2000 2000;" xml:space="preserve">
<style type="text/css">
	.st0{fill:#3DEEBA;}
	.st1{fill:#F7D45C;}
	.st2{fill:#2AAFFC;}
	.st3{fill:#FFFFFF;}
	.st4{fill:#FFFFFF;}
</style>
<g>
	<polygon class="st0" points="595.7,1064.5 595.6,1088.7 595.3,1137.9 595.1,1179 552.4,1154.4 552.6,1113.3 552.6,1113.3 
		428.6,1041.7 417.9,1035.5 400.4,1025.4 385.9,1017 428.6,992.3 439.3,998.5 443.2,1000.7 471.5,1017 552.9,1064.1 553.1,1039.9 
		566.2,1047.5 583.6,1057.5 	"/>
	<polygon class="st0" points="596.4,945 596,1015.3 583.6,1008.1 553.4,990.7 553.5,969.7 583.6,952.4 	"/>
	<polygon class="st1" points="553.8,920 553.7,936.8 553.5,969.7 535.3,980.3 506.9,963.9 492.4,955.5 	"/>
	<polygon class="st1" points="697.7,837.2 697.7,886.6 662,907.2 662,1102.8 619.2,1078.1 619.2,931.8 596.4,945 596.6,912 
		596.7,895.3 619.2,882.4 662,857.7 	"/>
	<polygon class="st2" points="553.4,990.7 553.2,1023 553.1,1039.9 492.4,1004.9 507.2,996.5 535.3,980.3 	"/>
	<polygon class="st2" points="597.2,821 596.9,870.6 583.6,878.3 553.9,895.5 471.2,943.3 471.2,943.3 492.4,955.5 464.3,971.7 
		449.6,980.2 428.5,968 385.7,943.3 350,922.7 392.8,898 428.4,918.6 554.2,845.9 583.6,828.9 	"/>
	<g>
		<path class="st3" d="M773.1,930.3v33.9h33v25.4h-33.2v51.6c0,11.4,6.3,17,15.5,17c4.6,0,9.9-1.5,14.3-3.6l8.2,25.2
			c-8.5,3.4-15.5,4.8-24.5,5.1c-25.9,1-42.9-13.8-42.9-43.6v-51.6h-22.3v-25.4h22.3v-30.8L773.1,930.3z"/>
		<path class="st3" d="M904.2,964h35.4v1l-39.3,57.9l41.7,59.9v0.7h-35.4l-25.9-40l-25.9,40h-35.4v-0.7l41.7-59.9L821.8,965v-1h35.4
			l23.5,40.5L904.2,964z"/>
		<path class="st3" d="M998.7,930.3v33.9h33v25.4h-33.2v51.6c0,11.4,6.3,17,15.5,17c4.6,0,9.9-1.5,14.3-3.6l8.2,25.2
			c-8.5,3.4-15.5,4.8-24.5,5.1c-25.9,1-42.9-13.8-42.9-43.6v-51.6h-22.3v-25.4h22.3v-30.8L998.7,930.3z"/>
		<path class="st3" d="M1099.7,942.9h-53.8v-29.1c48.9,0,90.4,0,139.6,0v29.1h-53.8v140.5h-32V942.9z"/>
		<path class="st3" d="M1205.4,964v62.5c0,18.2,9.9,32,28.8,32c18.2,0,30.5-15.3,30.5-33.4V964h29.3v119.7h-26.4l-1.9-16.2
			c-12.4,12.1-23.7,17.9-40.5,17.9c-28.6,0-49.4-21.6-49.4-58.6V964H1205.4z"/>
		<path class="st3" d="M1361.9,930.3v33.9h33v25.4h-33.2v51.6c0,11.4,6.3,17,15.5,17c4.6,0,9.9-1.5,14.3-3.6l8.2,25.2
			c-8.5,3.4-15.5,4.8-24.5,5.1c-25.9,1-42.9-13.8-42.9-43.6v-51.6H1310v-25.4h22.3v-30.8L1361.9,930.3z"/>
		<path class="st3" d="M1535.6,1023.9c0,34.4-23.5,62.3-62.3,62.3c-38.8,0-62-27.9-62-62.3c0-34.2,23.7-62.3,61.8-62.3
			C1511.2,961.6,1535.6,989.7,1535.6,1023.9z M1440.9,1023.9c0,18.2,10.9,35.1,32.5,35.1c21.6,0,32.5-17,32.5-35.1
			c0-17.9-12.6-35.4-32.5-35.4C1452,988.5,1440.9,1005.9,1440.9,1023.9z"/>
		<path class="st3" d="M1583.4,964l2.2,13.8c9.2-14.8,21.6-17,33.7-17c12.4,0,24.2,4.8,30.8,11.4l-13.3,25.7
			c-6.1-5.1-11.6-7.8-21.3-7.8c-15.5,0-29.8,8.2-29.8,30.3v63H1556V964H1583.4z"/>
	</g>
</g>
</svg>
